<svg width="32" height="32" viewBox="0 0 32 32" fill="none" xmlns="http://www.w3.org/2000/svg">
<g clip-path="url(#clip0_4952_52)">
<rect width="32" height="32" fill="white"/>
<path d="M30 16L29 14L28.5 12M30 16V17.5M30 16L21.5 15M30 27.5L32 30M30 27.5L23 31M30 27.5V23M23 31L19 28L19.5 25M23 31L25.5 26M30 23V17.5M30 23L25.5 26M18.5 5L7 3L8 5.5M18.5 5L29 10.5L28.5 12M18.5 5L21 9M28.5 12L21 9M19.5 25L15 22.5M19.5 25L23 23M11 12.5V20L15 22.5M11 12.5V17L15.5 12M11 12.5L8 5.5M13.5 8L15.5 12M13.5 8L21 9M13.5 8L8 5.5M15.5 12L21.5 15M19.5 19L21.5 15M19.5 19L25 21.5M19.5 19L15 22.5M30 17.5L25 21.5M25.5 26L23 23M25 21.5L23 23" stroke="black"/>
</g>
<defs>
<clipPath id="clip0_4952_52">
<rect width="32" height="32" fill="white"/>
</clipPath>
</defs>
</svg>
