<svg width="32" height="32" viewBox="0 0 32 32" fill="none" xmlns="http://www.w3.org/2000/svg">
<g clip-path="url(#clip0_4942_31)">
<rect width="32" height="32" fill="white"/>
<path d="M29 14.5L30 17V23.5M29 14.5V12.5M29 14.5L27.0714 17M30 28L32 30M30 28L25 30.5M30 28V23.5M25 30.5L25.5 26.5M25 30.5L20.5 27.5L22 24.8889M25.5 26.5L30 23.5M25.5 26.5L23.2143 23M23.2143 23L22 24.8889M23.2143 23L27.0714 17M10 4.5L21 4L25 7M10 4.5L6 11.5M10 4.5L12 7M6 11.5L8.5 20M6 11.5L9 12M8.5 20L9 12M8.5 20L11.5 21.0864M22 24.8889L17.5 23.2593M29 12.5V10L25 7M29 12.5L18 12M18 12L10.5966 9.33902M18 12L15.3574 15.6942M25 7H12M12 7L10.5966 9.33902M9 12L10.5966 9.33902M11.5 21.0864L17.5 23.2593M11.5 21.0864L15.3574 15.6942M27.0714 17L19.5 18M19.5 18L17.5 23.2593M19.5 18L15.3574 15.6942" stroke="black"/>
</g>
<defs>
<clipPath id="clip0_4942_31">
<rect width="32" height="32" fill="white"/>
</clipPath>
</defs>
</svg>
