<svg width="83" height="103" viewBox="0 0 83 103" fill="none" xmlns="http://www.w3.org/2000/svg">
<rect width="83" height="103" fill="white"/>
<path d="M31 82H28V90M31 82V78H38V72M31 82V86M44 81H36V87M44 81H47V77M44 81L44 84H46V88M44 81V77M36 92V87M36 87H39V96M46 94V88M46 88H43V91M51 88V85M51 85V77H47M51 85H54V95M47 35V46H45M47 35V31H44V29M47 35H45M47 35H49V31V26M38 50H36V61H38M38 50H40V44H42V35H45M38 50V52H42M38 50V42H40V36H38V29H40M45 35V46M45 35V33H40V29M44 70L44 77M44 70H47V77M44 70H40V66M44 70V66M47 77H44M44 77H41V72H38M38 72V66H40M38 72H36V63H38V61M40 61V66M40 61H42V64H44V66M40 61V59H42V57H44M40 61H38M40 66H44M44 66H46V59H44V57M42 52H44V57M42 52V55H38V61M42 52V46H45M44 57H47V49H45V46M44 24H40V29M44 24H47V21M44 24V29M44 24V21M40 29H44M44 29H46V26H49M44 21V15H42V11M44 21H39V18H35V14M44 21H47M35 14H32V10M35 14V7M42 8V11M42 11H39V6M47 21V13M47 21H49V26M47 6V13M47 13H50V10M54 14V19H51V26H49M54 14H57V8M54 14V11" stroke="black" stroke-width="0.624" stroke-linecap="square"/>
</svg>
