<svg width="83" height="103" viewBox="0 0 83 103" fill="none" xmlns="http://www.w3.org/2000/svg">
<rect width="83" height="103" fill="white"/>
<path d="M36.5 34.5L40 38V47L41.5 56M36.5 34.5L30.5 33M36.5 34.5L37 31M30.5 33L24.5 33.5M30.5 33L29.5 27M24.5 33.5L19.5 35.5M24.5 33.5L22 29.5M29.5 27L30.5 24M29.5 27L25.5 22.5M43.5 34L43 37V45.5L44.5 50.5M43.5 34L40 32M43.5 34L45.5 31M40 32L37 31M40 32V29M37 31L34 30M37 31L37.5 27M45.5 31L45 27M45.5 31L48.7971 28.8023M45 27L40.5 23.4545M45 27L46 24.5M52.2073 26.5L55 22.5M52.2073 26.5H56M52.2073 26.5L48.7971 28.8023M55 22.5L59 19.5M55 22.5L54.5 20M50 33.5L46 38V44.5L44.5 50.5M50 33.5L48.7971 28.8023M50 33.5L55.5 33M48.7971 28.8023L48.5 25M48.5 25L46 24.5M48.5 25L50 21M46 24.5L47 22M55.5 33L58 29.5M55.5 33L60 33.5M60 33.5L63.5 33M60 33.5L60.5 35M37.5 27L33 21M37.5 27L40.5 23.4545M43 20.5L40.5 23.4545M40.5 23.4545L38.5 22M39 87H35V95M39 87V90M39 87V84L40.5 79M40.5 79L43.5 74.5M40.5 79L43 83.5V86M40.5 79L38 73.5L40.5 68.5M43.5 74.5L49 84V89M43.5 74.5L40.5 68.5M43.5 74.5L46 69L44 63M43 100V94M43 86H47V92M43 86V94M47 92H49M47 92H45V101M47 92V97M39 98V94H41M49 98V92M49 89H51V96M49 89V92M40.5 68.5L44 63M40.5 68.5L38.5 62L41.5 56M44 63L41.5 56M44 63L46.5 56.5L44.5 50.5M41.5 56L44.5 50.5M43 94H41M37 99V90H39M39 90H41V94M41 94V102" stroke="black" stroke-width="0.624" stroke-linecap="square"/>
</svg>
