<svg width="83" height="103" viewBox="0 0 83 103" fill="none" xmlns="http://www.w3.org/2000/svg">
<rect width="83" height="103" fill="white"/>
<path d="M34.5 34.5L38 38V44.5L34 49M34.5 34.5L28.5 33M34.5 34.5L35 28.8023M28.5 33L22.5 34M28.5 33L28 29M22.5 34L17.5 36M22.5 34L20 30M27.5 27L28.5 24M27.5 27L23.5 22.5M27.5 27L28 29M28 29L32.5 28M28 29L26 29.5M32.5 28L31 26M32.5 28L35 28.8023M38.5 29.5L41 24.5M38.5 29.5L39.5 32M38.5 29.5L35 28.8023M41 24.5L45 20M41 24.5L39.5 21.9M45.5 34L45 37V45.5L46.5 50M45.5 34L42 32.5M45.5 34L47.5 31M42 32.5L39.5 32M42 32.5V29M39.5 32L41 37V45.5L40.5 48.5M39.5 32L37 31.5M47.5 31L47 27M47.5 31L50.7971 28.8023M47 27L43.5 25M47 27V24.5M54.2073 26.5L57 22.5M54.2073 26.5H58M54.2073 26.5L50.7971 28.8023M57 22.5L61 19.5M57 22.5L56.5 20M52 33.5L48 38V44.5L51.5 48M52 33.5L50.7971 28.8023M52 33.5L57.5 33M50.7971 28.8023L49.5 25M49.5 25L47 24.5M49.5 25L50 21M47 24.5V22M57.5 33L60 29.5M57.5 33L62 33.5M62 33.5L65.5 33M62 33.5L62.5 35M35 28.8023L36 25M36 25L33 18.5M36 25L39.5 21.9M39.5 21.9L38.5 20M39.5 21.9L41 20.5M51.5 48L57.5 49.5M51.5 48L51 53.6977M57.5 49.5L63.5 48.5M57.5 49.5L58 53.5M63.5 48.5L68.5 46.5M63.5 48.5L66 52.5M58.5 55.5L57.5 58.5M58.5 55.5L62.5 60M58.5 55.5L58 53.5M58 53.5L53.5 54.5M58 53.5L60 53M53.5 54.5L55 56.5M53.5 54.5L51 53.6977M47.5 53L45 58M47.5 53L46.5 50M47.5 53L51 53.6977M45 58L41 62.5M45 58L46.5 60.6M40.5 48.5L43.5 49.5M40.5 48.5L38.5 51.5M43.5 49.5L46.5 50M43.5 49.5L44 53.5M46.5 50L49 50.5M38.5 51.5L39 55.5M38.5 51.5L35.2029 53.6977M39 55.5L42.5 57.5M39 55.5V58M31.7927 56L29 60M31.7927 56H28M31.7927 56L35.2029 53.6977M29 60L25 63M29 60L29.5 62.5M34 49L35.2029 53.6977M34 49L28.5 49.5M35.2029 53.6977L36.5 57.5M36.5 57.5L39 58M36.5 57.5L36 61.5M39 58V60.5M28.5 49.5L26 53M28.5 49.5L24 49M24 49L20.5 49.5M24 49L23.5 47.5M51 53.6977L50 57.5M50 57.5L53 64M50 57.5L46.5 60.6M46.5 60.6L47.5 62.5M46.5 60.6L45 62" stroke="black" stroke-width="0.624" stroke-linecap="square"/>
</svg>
