<svg width="55" height="73" viewBox="0 0 55 73" fill="none" xmlns="http://www.w3.org/2000/svg">
<rect width="55" height="73" fill="white"/>
<path d="M22 38V46H17V50M22 38H29M22 38H19V28H23V25M22 38V31H28V25M17 65V56M29 38V52M29 38H35V48M29 38V34H32V25H28M29 52H23V56M29 52V55M23 63V60M29 55V59M29 55H35M38 68V62M29 66V59M17 56H23M17 56V50M23 56H26V71M23 56V60M23 60H20V67M29 59H32V64M35 55H38V62M35 55V69M35 55V48M38 62H41M41 62H44V66M41 62V70M41 62V48H35M17 50H14V58M14 68V58M14 58H11V64M28 25V21H31V11H27M28 25H23M23 25H20V14H24V11M23 25V18H27V11M27 11H24M27 11V3H24M24 3V11M24 3H20V11H24" stroke="black"/>
</svg>
