<svg width="596" height="72" viewBox="0 0 596 72" fill="none" xmlns="http://www.w3.org/2000/svg">
<path fill-rule="evenodd" clip-rule="evenodd" d="M154.874 9.457V58.5H163.733V27.779L190.264 49.218L216.795 27.779V58.5H225.654V9.457L190.129 37.676L154.874 9.457ZM20.859 9L12 14.25V58.5H66.779L74.279 49.641H20.859V9ZM233.453 58.5H244.848L273.097 25.61L301.418 58.5H312.821L273.08 11.762L233.453 58.5ZM134.296 36.375C134.296 42.568 130.171 49.5 120.608 49.5C111.045 49.5 113.108 49.5 103.545 49.5C93.982 49.5 89.857 42.568 89.857 36.375V14.25H80.998V35.906C80.998 50.806 91.978 58.5 104.67 58.5C116.201 58.5 107.951 58.5 119.483 58.5C132.174 58.5 143.155 50.807 143.155 35.906V14.25H134.296V36.375ZM488.9 14.25H466.037C451.74 14.25 443.889 25.898 443.889 35.865C443.889 36.709 443.889 36.088 443.889 36.931C443.889 46.898 451.741 58.546 466.037 58.546H488.9C503.197 58.546 511.048 46.898 511.048 36.931C511.048 36.087 511.048 36.708 511.048 35.865C511.048 25.898 503.197 14.25 488.9 14.25ZM501.99 37.635C501.99 45.662 494.308 49.688 487.845 49.688H467.091C460.628 49.688 452.946 45.663 452.946 37.635V35.162C452.946 27.135 460.628 23.109 467.091 23.109H487.845C494.308 23.109 501.99 27.134 501.99 35.162V37.635ZM419.689 41.016C432.884 41.016 433.828 29.25 433.828 28.407C433.828 27.564 433.828 27.719 433.828 26.876C433.828 26.033 432.885 14.267 419.689 14.267H371.648V16.267H371.625V58.501H380.484V41.017H401.698L420.885 58.529L433.895 58.512L414.804 41.017H419.689V41.016ZM380.484 32.156V23.125H419.689C424.869 23.125 424.64 26.406 424.64 27.156C424.64 27.906 424.64 27.375 424.64 28.125C424.64 28.875 424.869 32.156 419.689 32.156H380.484ZM575.624 9V45.938L522.374 10.313V58.501H531.233V27.188L584.483 62.251V14.251L575.624 9ZM298.148 23.156H324.75V58.5H333.609V23.156H360.158V14.265H298.148V23.156ZM273.176 53.596L282.78 42.391H262.991L273.176 53.596Z" fill="black"/>
</svg>
