<svg width="120" height="50" viewBox="0 0 120 50" fill="none" xmlns="http://www.w3.org/2000/svg">
<g clip-path="url(#clip0_2472_9)">
<rect width="120" height="50" fill="white"/>
<path d="M39 9L33 1H23L17 9M39 9H49L55 1H65L71 9H77M39 9L33 17M81 9L87 1H97L103 9M81 9L87 17M81 9H77M103 9H113L119 17L113 25M103 9L97 17M113 25L119 33L113 41H103M113 25H103M103 41L97 49H87L81 41M103 41L97 33M81 41L87 33M81 41H77M39 41L33 49H23L17 41M39 41L33 33M39 41H49L55 49H65L71 41H77M17 41H7L1 33L7 25M17 41L23 33M7 25L1 17L7 9H17M7 25H17M17 9L23 17M17 25L23 33M17 25L23 17M23 33H33M33 33H37M55 17H51M65 17H69M87 33H97M87 33L81 25L87 17M97 33L103 25M103 25L97 17M97 17H87M51 17V33M51 17H45M51 33H45M51 33H53M45 17H43M45 17V25M45 33H43M45 33V25M45 25H37M37 25V17M37 25V33M33 17H23M33 17H37M39 17H37M37 33H39M69 17V25M69 17H77V9M69 33V25M69 33H77V41M69 33H67M69 25H73" stroke="black" stroke-width="1.2" stroke-linecap="square"/>
</g>
<defs>
<clipPath id="clip0_2472_9">
<rect width="120" height="50" fill="white"/>
</clipPath>
</defs>
</svg>
