<?xml version="1.0" standalone="no"?>
<!DOCTYPE svg PUBLIC "-//W3C//DTD SVG 20010904//EN"
 "http://www.w3.org/TR/2001/REC-SVG-20010904/DTD/svg10.dtd">
<svg version="1.0" xmlns="http://www.w3.org/2000/svg"
 width="500.000000pt" height="500.000000pt" viewBox="0 0 500.000000 500.000000"
 preserveAspectRatio="xMidYMid meet">
<metadata>
Created by potrace 1.16, written by Peter Selinger 2001-2019
</metadata>
<g transform="translate(0.000000,500.000000) scale(0.100000,-0.100000)"
fill="#000000" stroke="none">
<path d="M420 4993 c-51 -8 -147 -47 -198 -80 -107 -71 -190 -201 -212 -332
-8 -47 -10 -158 -8 -328 4 -242 5 -262 27 -318 51 -130 131 -219 252 -279 100
-50 170 -58 466 -54 242 4 262 5 318 27 130 51 219 131 279 252 50 100 58 170
54 466 -4 242 -5 262 -27 318 -49 125 -126 213 -240 274 -98 52 -164 61 -441
59 -135 0 -256 -3 -270 -5z m616 -225 c65 -34 118 -95 145 -167 19 -51 20 -72
17 -320 l-3 -266 -27 -51 c-34 -65 -95 -118 -167 -145 -51 -19 -72 -20 -320
-17 l-266 3 -51 27 c-65 34 -118 95 -145 167 -19 51 -20 72 -17 320 l3 266 27
51 c33 63 94 117 162 144 47 18 72 19 321 17 l270 -2 51 -27z"/>
<path d="M438 4571 l-33 -29 -3 -235 -3 -236 30 -33 29 -33 235 -3 236 -3 33
30 33 29 3 235 3 236 -30 33 -29 33 -235 3 -236 3 -33 -30z"/>
<path d="M1639 4972 l-34 -30 -3 -135 -4 -135 29 -31 c18 -20 41 -34 64 -37
31 -5 42 -1 70 24 l34 30 3 135 4 135 -29 31 c-18 20 -41 34 -64 37 -31 5 -42
1 -70 -24z"/>
<path d="M2039 4972 l-34 -30 -3 -171 -3 -171 -65 0 c-56 0 -67 -3 -96 -29
-30 -26 -33 -35 -36 -100 l-4 -71 -64 0 c-56 0 -68 -3 -96 -29 l-33 -29 -3
-135 -4 -135 29 -31 c18 -20 41 -34 64 -37 31 -5 42 -1 70 24 31 27 34 35 37
101 l4 71 99 0 99 0 0 -65 c0 -57 3 -68 29 -97 26 -30 35 -33 100 -36 l71 -4
0 -64 c0 -55 4 -68 28 -94 17 -19 40 -33 63 -36 31 -5 42 -1 70 24 l34 30 3
135 4 135 -30 33 c-27 31 -35 34 -101 37 l-71 4 0 99 0 99 65 0 c57 0 68 3 97
29 l33 29 3 135 4 135 -30 33 c-27 31 -35 34 -101 37 l-71 4 0 64 c0 55 -4 68
-27 94 -18 19 -41 33 -64 36 -31 5 -42 1 -70 -24z"/>
<path d="M2640 4973 c-19 -18 -33 -41 -36 -64 -5 -31 -1 -42 24 -70 27 -31 35
-34 101 -37 l71 -4 0 -164 0 -164 28 -30 c17 -19 40 -33 63 -36 31 -5 42 -1
70 24 l34 30 3 171 3 171 165 0 164 0 30 28 c19 17 33 40 36 63 5 31 1 42 -24
70 l-30 34 -336 3 -335 3 -31 -28z"/>
<path d="M4020 4993 c-51 -8 -147 -47 -198 -80 -107 -71 -190 -201 -212 -332
-8 -47 -10 -158 -8 -328 4 -242 5 -262 27 -318 51 -130 131 -219 252 -279 100
-50 170 -58 466 -54 242 4 262 5 318 27 130 51 219 131 279 252 50 100 58 170
54 466 -4 242 -5 262 -27 318 -49 125 -126 213 -240 274 -98 52 -164 61 -441
59 -135 0 -256 -3 -270 -5z m616 -225 c65 -34 118 -95 145 -167 19 -51 20 -72
17 -320 l-3 -266 -27 -51 c-34 -65 -95 -118 -167 -145 -51 -19 -72 -20 -320
-17 l-266 3 -51 27 c-65 34 -118 95 -145 167 -19 51 -20 72 -17 320 l3 266 27
51 c33 63 94 117 162 144 47 18 72 19 321 17 l270 -2 51 -27z"/>
<path d="M4038 4571 l-33 -29 -3 -235 -3 -236 30 -33 29 -33 235 -3 236 -3 33
30 33 29 3 235 3 236 -30 33 -29 33 -235 3 -236 3 -33 -30z"/>
<path d="M2639 4372 l-34 -30 -3 -235 -3 -236 28 -31 c18 -19 41 -33 64 -36
31 -5 42 -1 70 24 l34 30 3 235 3 236 -28 31 c-18 19 -41 33 -64 36 -31 5 -42
1 -70 -24z"/>
<path d="M3041 4374 c-46 -42 -52 -92 -15 -133 42 -46 92 -52 133 -15 46 42
52 92 15 133 -42 46 -92 52 -133 15z"/>
<path d="M3239 4172 c-31 -27 -34 -35 -37 -101 l-4 -71 -64 0 c-55 0 -68 -4
-94 -27 -19 -18 -33 -41 -36 -64 -5 -31 -1 -42 24 -70 27 -31 35 -34 101 -37
l71 -4 0 -199 0 -199 -65 0 c-57 0 -69 -3 -95 -27 -19 -18 -33 -41 -36 -64 -5
-31 -1 -42 24 -70 27 -31 35 -34 101 -37 l71 -4 0 -64 c0 -56 3 -68 29 -96 26
-30 35 -33 100 -36 l71 -4 0 -64 c0 -55 4 -68 28 -94 17 -19 40 -33 63 -36 31
-5 42 -1 70 24 l34 30 3 235 3 236 -29 32 c-27 31 -35 34 -101 37 l-71 4 0
364 0 364 -27 30 c-18 19 -41 33 -64 36 -31 5 -42 1 -70 -24z"/>
<path d="M1841 3974 c-46 -42 -52 -92 -15 -133 42 -46 92 -52 133 -15 46 42
52 92 15 133 -42 46 -92 52 -133 15z"/>
<path d="M1641 3774 c-46 -42 -52 -92 -15 -133 42 -46 92 -52 133 -15 46 42
52 92 15 133 -42 46 -92 52 -133 15z"/>
<path d="M2039 3772 l-34 -30 -3 -135 -4 -135 29 -31 c18 -20 41 -34 64 -37
31 -5 42 -1 70 24 l34 30 3 135 4 135 -29 31 c-18 20 -41 34 -64 37 -31 5 -42
1 -70 -24z"/>
<path d="M2439 3772 l-34 -30 -3 -436 -3 -435 30 -33 29 -33 135 -3 135 -4 33
30 c31 27 34 35 37 101 l4 71 64 0 c55 0 68 4 94 28 19 17 33 40 36 63 5 31 1
42 -24 70 l-30 34 -171 3 -171 3 0 100 0 99 65 0 c57 0 69 3 95 28 19 17 33
40 36 63 5 31 1 42 -24 70 -27 31 -35 34 -101 37 l-71 4 0 64 c0 55 -4 68 -27
94 -18 19 -41 33 -64 36 -31 5 -42 1 -70 -24z"/>
<path d="M2841 3774 c-46 -42 -52 -92 -15 -133 42 -46 92 -52 133 -15 46 42
52 92 15 133 -42 46 -92 52 -133 15z"/>
<path d="M39 3372 l-34 -30 -3 -336 -3 -335 29 -33 c27 -30 35 -33 101 -36
l71 -4 0 -64 c0 -55 4 -68 28 -94 17 -19 40 -33 63 -36 31 -5 42 -1 70 24 31
27 34 35 37 101 l4 71 199 0 199 0 0 -65 c0 -57 3 -69 28 -95 17 -19 40 -33
63 -36 31 -5 42 -1 70 24 31 27 34 35 37 101 l4 71 64 0 c55 0 68 4 94 28 19
17 33 40 36 63 5 31 1 42 -24 70 -27 31 -35 34 -101 37 l-71 4 0 64 c0 56 -3
68 -29 96 l-29 33 -135 3 -135 4 -33 -30 c-31 -27 -34 -35 -37 -101 l-4 -71
-199 0 -199 0 0 265 0 265 -27 30 c-18 19 -41 33 -64 36 -31 5 -42 1 -70 -24z"/>
<path d="M1241 3373 c-20 -18 -34 -41 -37 -64 -5 -31 -1 -42 24 -70 27 -31 35
-34 101 -37 l71 -4 0 -64 c0 -56 3 -68 29 -96 l29 -33 135 -3 135 -4 31 29
c20 18 34 41 37 64 5 31 1 42 -24 70 -27 31 -35 34 -101 37 l-71 4 0 64 c0 56
-3 68 -29 96 l-29 33 -135 3 -135 4 -31 -29z"/>
<path d="M4039 3372 l-34 -30 -3 -135 -4 -135 30 -33 30 -34 235 -3 236 -3 31
28 c19 18 33 41 36 64 5 31 1 42 -24 70 -27 31 -35 34 -101 37 l-71 4 0 64 c0
56 -3 68 -29 96 l-29 33 -135 3 -135 4 -33 -30z"/>
<path d="M4641 3373 c-20 -18 -34 -41 -37 -64 -5 -31 -1 -42 24 -70 27 -31 35
-34 101 -37 l71 -4 0 -64 c0 -55 4 -68 28 -94 17 -19 40 -33 63 -36 31 -5 42
-1 70 24 l34 30 3 135 4 135 -30 33 -30 34 -135 3 -135 4 -31 -29z"/>
<path d="M441 3174 c-46 -42 -52 -92 -15 -133 42 -46 92 -52 133 -15 46 42 52
92 15 133 -42 46 -92 52 -133 15z"/>
<path d="M1041 3174 c-46 -42 -52 -92 -15 -133 42 -46 92 -52 133 -15 46 42
52 92 15 133 -42 46 -92 52 -133 15z"/>
<path d="M2041 3174 c-46 -42 -52 -92 -15 -133 42 -46 92 -52 133 -15 46 42
52 92 15 133 -42 46 -92 52 -133 15z"/>
<path d="M1241 2974 c-46 -42 -52 -92 -15 -133 42 -46 92 -52 133 -15 46 42
52 92 15 133 -42 46 -92 52 -133 15z"/>
<path d="M1841 2974 c-46 -42 -52 -92 -15 -133 42 -46 92 -52 133 -15 46 42
52 92 15 133 -42 46 -92 52 -133 15z"/>
<path d="M3039 2972 l-34 -30 -3 -235 -3 -236 29 -32 c27 -31 35 -34 101 -37
l71 -4 0 -599 0 -599 -65 0 c-57 0 -69 -3 -95 -27 -19 -18 -33 -41 -36 -64 -5
-31 -1 -42 24 -70 27 -31 35 -34 101 -37 l71 -4 0 -64 c0 -56 3 -68 29 -96
l29 -33 436 -3 435 -3 33 30 33 29 3 171 3 171 65 0 c56 0 67 3 96 29 l33 29
3 171 3 171 65 0 c55 0 68 4 94 28 19 17 33 40 36 63 5 31 1 42 -24 70 l-30
34 -171 3 -171 3 0 100 0 99 65 0 c57 0 68 3 97 29 l33 29 3 135 4 135 -29 31
c-18 20 -41 34 -64 37 -31 5 -42 1 -70 -24 -31 -27 -34 -35 -37 -101 l-4 -71
-64 0 c-56 0 -68 -3 -96 -29 -30 -26 -33 -35 -36 -100 l-4 -71 -64 0 c-56 0
-68 -3 -96 -29 -30 -26 -33 -35 -36 -100 l-4 -71 -199 0 -199 0 0 200 0 200
65 0 c57 0 69 3 95 28 19 17 33 40 36 63 5 31 1 42 -24 70 -27 31 -35 34 -101
37 l-71 4 0 64 c0 56 -3 68 -29 96 -26 30 -35 33 -100 36 l-71 4 0 164 0 164
-27 30 c-18 19 -41 33 -64 36 -31 5 -42 1 -70 -24z m961 -1672 l0 -300 -300 0
-300 0 0 300 0 300 300 0 300 0 0 -300z"/>
<path d="M3641 1374 c-46 -42 -52 -92 -15 -133 42 -46 92 -52 133 -15 46 42
52 92 15 133 -42 46 -92 52 -133 15z"/>
<path d="M4639 2972 c-31 -27 -34 -35 -37 -101 l-4 -71 -464 0 -464 0 -32 -29
-33 -29 -3 -135 -4 -135 29 -31 c18 -20 41 -34 64 -37 31 -5 42 -1 70 24 31
27 34 35 37 101 l4 71 99 0 99 0 0 -65 c0 -57 3 -69 28 -95 17 -19 40 -33 63
-36 31 -5 42 -1 70 24 31 27 34 35 37 101 l4 71 199 0 199 0 0 -65 c0 -57 3
-68 29 -97 l29 -33 135 -3 135 -4 31 29 c20 18 34 41 37 64 5 31 1 42 -24 70
-27 31 -35 34 -101 37 l-71 4 0 164 0 164 -27 30 c-18 19 -41 33 -64 36 -31 5
-42 1 -70 -24z"/>
<path d="M1240 2573 c-19 -18 -33 -41 -36 -64 -5 -31 -1 -42 24 -70 27 -31 35
-34 101 -37 l71 -4 0 -64 c0 -55 4 -68 28 -94 17 -19 40 -33 63 -36 31 -5 42
-1 70 24 31 27 34 35 37 101 l4 71 64 0 c55 0 68 4 94 28 19 17 33 40 36 63 5
31 1 42 -24 70 l-30 34 -235 3 -236 3 -31 -28z"/>
<path d="M2039 2572 c-31 -27 -34 -35 -37 -101 l-4 -71 -64 0 c-56 0 -68 -3
-96 -29 -30 -26 -33 -35 -36 -100 l-4 -71 -64 0 c-55 0 -68 -4 -94 -27 -19
-18 -33 -41 -36 -64 -5 -31 -1 -42 24 -70 27 -31 35 -34 101 -37 l71 -4 0 -64
c0 -56 3 -68 29 -96 l29 -33 171 -3 171 -3 0 -65 c0 -56 3 -67 29 -96 l29 -33
171 -3 171 -3 0 -65 c0 -55 4 -68 28 -94 17 -19 40 -33 63 -36 31 -5 42 -1 70
24 l34 30 3 171 3 171 65 0 c56 0 67 3 96 29 l33 29 3 235 3 236 -28 31 c-18
19 -41 33 -64 36 -31 5 -42 1 -70 -24 -31 -27 -34 -35 -37 -101 l-4 -71 -64 0
c-56 0 -68 -3 -96 -29 -30 -26 -33 -35 -36 -100 l-4 -71 -99 0 -99 0 0 65 c0
57 -3 69 -27 95 -18 19 -41 33 -64 36 -31 5 -42 1 -70 -24 -31 -27 -34 -35
-37 -101 l-4 -71 -99 0 -99 0 0 100 0 100 65 0 c57 0 68 3 97 29 l33 29 3 135
4 135 -29 31 c-18 20 -41 34 -64 37 -31 5 -42 1 -70 -24z"/>
<path d="M2441 2573 c-20 -18 -34 -41 -37 -64 -5 -31 -1 -42 24 -70 l30 -34
135 -3 135 -4 31 29 c20 18 34 41 37 64 5 31 1 42 -24 70 l-30 34 -135 3 -135
4 -31 -29z"/>
<path d="M441 2373 c-20 -18 -34 -41 -37 -64 -5 -31 -1 -42 24 -70 l30 -34
135 -3 135 -4 31 29 c20 18 34 41 37 64 5 31 1 42 -24 70 l-30 34 -135 3 -135
4 -31 -29z"/>
<path d="M1041 2374 c-46 -42 -52 -92 -15 -133 42 -46 92 -52 133 -15 46 42
52 92 15 133 -42 46 -92 52 -133 15z"/>
<path d="M3841 2374 c-46 -42 -52 -92 -15 -133 42 -46 92 -52 133 -15 46 42
52 92 15 133 -42 46 -92 52 -133 15z"/>
<path d="M41 2174 c-46 -42 -52 -92 -15 -133 42 -46 92 -52 133 -15 46 42 52
92 15 133 -42 46 -92 52 -133 15z"/>
<path d="M841 2174 c-46 -42 -52 -92 -15 -133 42 -46 92 -52 133 -15 46 42 52
92 15 133 -42 46 -92 52 -133 15z"/>
<path d="M1241 2174 c-46 -42 -52 -92 -15 -133 42 -46 92 -52 133 -15 46 42
52 92 15 133 -42 46 -92 52 -133 15z"/>
<path d="M441 1974 c-46 -42 -52 -92 -15 -133 42 -46 92 -52 133 -15 46 42 52
92 15 133 -42 46 -92 52 -133 15z"/>
<path d="M1439 1972 c-31 -27 -34 -35 -37 -101 l-4 -71 -64 0 c-55 0 -68 -4
-94 -27 -19 -18 -33 -41 -36 -64 -5 -31 -1 -42 24 -70 l30 -34 235 -3 236 -3
31 28 c19 18 33 41 36 64 5 31 1 42 -24 70 -27 31 -35 34 -101 37 l-71 4 0 64
c0 55 -4 68 -27 94 -18 19 -41 33 -64 36 -31 5 -42 1 -70 -24z"/>
<path d="M41 1774 c-46 -42 -52 -92 -15 -133 42 -46 92 -52 133 -15 46 42 52
92 15 133 -42 46 -92 52 -133 15z"/>
<path d="M841 1774 c-46 -42 -52 -92 -15 -133 42 -46 92 -52 133 -15 46 42 52
92 15 133 -42 46 -92 52 -133 15z"/>
<path d="M4839 1772 c-31 -27 -34 -35 -37 -101 l-4 -71 -64 0 c-56 0 -68 -3
-96 -29 l-33 -29 -3 -271 -3 -271 -64 0 c-57 0 -68 -3 -97 -29 l-33 -29 -3
-271 -3 -271 -64 0 c-57 0 -68 -3 -97 -29 l-33 -29 -3 -135 -4 -135 30 -33 30
-34 336 -3 335 -3 31 28 c19 18 33 41 36 64 5 31 1 42 -24 70 -27 31 -35 34
-101 37 l-71 4 0 164 0 164 -29 32 c-26 30 -35 33 -100 36 l-71 4 0 99 0 99
65 0 c57 0 68 3 97 29 l33 29 3 171 3 171 65 0 c56 0 67 3 96 29 l33 29 3 235
3 236 -28 31 c-18 19 -41 33 -64 36 -31 5 -42 1 -70 -24z"/>
<path d="M2039 1572 l-34 -30 -3 -171 -3 -171 -65 0 c-56 0 -67 -3 -96 -29
l-33 -29 -3 -436 -3 -435 28 -31 c18 -19 41 -33 64 -36 31 -5 42 -1 70 24 l34
30 3 171 3 171 100 0 99 0 0 -200 0 -200 -65 0 c-57 0 -69 -3 -95 -27 -19 -18
-33 -41 -36 -64 -5 -31 -1 -42 24 -70 l30 -34 235 -3 236 -3 31 28 c19 18 33
41 36 64 5 31 1 42 -24 70 -27 31 -35 34 -101 37 l-71 4 0 399 0 399 65 0 c57
0 68 3 97 29 l33 29 3 135 4 135 -30 33 -30 34 -171 3 -171 3 0 65 c0 55 -4
68 -27 94 -18 19 -41 33 -64 36 -31 5 -42 1 -70 -24z"/>
<path d="M420 1393 c-51 -8 -147 -47 -198 -80 -107 -71 -190 -201 -212 -332
-8 -47 -10 -158 -8 -328 4 -242 5 -262 27 -318 51 -130 131 -219 252 -279 100
-50 170 -58 466 -54 242 4 262 5 318 27 130 51 219 131 279 252 50 100 58 170
54 466 -4 242 -5 262 -27 318 -49 125 -126 213 -240 274 -98 52 -164 61 -441
59 -135 0 -256 -3 -270 -5z m616 -225 c65 -34 118 -95 145 -167 19 -51 20 -72
17 -320 l-3 -266 -27 -51 c-34 -65 -95 -118 -167 -145 -51 -19 -72 -20 -320
-17 l-266 3 -51 27 c-65 34 -118 95 -145 167 -19 51 -20 72 -17 320 l3 266 27
51 c33 63 94 117 162 144 47 18 72 19 321 17 l270 -2 51 -27z"/>
<path d="M438 971 l-33 -29 -3 -235 -3 -236 30 -33 29 -33 235 -3 236 -3 33
30 33 29 3 235 3 236 -30 33 -29 33 -235 3 -236 3 -33 -30z"/>
<path d="M1641 1374 c-46 -42 -52 -92 -15 -133 42 -46 92 -52 133 -15 46 42
52 92 15 133 -42 46 -92 52 -133 15z"/>
<path d="M2841 1374 c-46 -42 -52 -92 -15 -133 42 -46 92 -52 133 -15 46 42
52 92 15 133 -42 46 -92 52 -133 15z"/>
<path d="M2641 973 c-20 -18 -34 -41 -37 -64 -5 -31 -1 -42 24 -70 27 -31 35
-34 101 -37 l71 -4 0 -199 0 -199 -65 0 c-57 0 -69 -3 -95 -28 -19 -17 -33
-40 -36 -63 -5 -31 -1 -42 24 -70 27 -31 35 -34 101 -37 l71 -4 0 -64 c0 -56
3 -68 29 -96 l29 -33 135 -3 135 -4 31 29 c20 18 34 41 37 64 5 31 1 42 -24
70 -27 31 -35 34 -101 37 l-71 4 0 99 0 99 100 0 100 0 0 -65 c0 -57 3 -68 29
-97 l29 -33 135 -3 135 -4 33 30 34 30 3 135 4 135 -30 33 -30 34 -171 3 -171
3 0 65 c0 56 -3 67 -29 96 -26 30 -35 33 -100 36 l-71 4 0 64 c0 56 -3 68 -29
96 l-29 33 -135 3 -135 4 -31 -29z"/>
<path d="M4841 774 c-46 -42 -52 -92 -15 -133 42 -46 92 -52 133 -15 46 42 52
92 15 133 -42 46 -92 52 -133 15z"/>
<path d="M1641 174 c-46 -42 -52 -92 -15 -133 42 -46 92 -52 133 -15 46 42 52
92 15 133 -42 46 -92 52 -133 15z"/>
<path d="M3641 174 c-46 -42 -52 -92 -15 -133 42 -46 92 -52 133 -15 46 42 52
92 15 133 -42 46 -92 52 -133 15z"/>
</g>
</svg>
