<svg width="75" height="34" viewBox="0 0 75 34" fill="none" xmlns="http://www.w3.org/2000/svg">
<rect width="75" height="34" fill="white"/>
<path fill-rule="evenodd" clip-rule="evenodd" d="M69 21C66.7909 21 65 19.2091 65 17V7C65 4.79086 63.2091 3 61 3H46.5C45.6716 3 45 3.67157 45 4.5V4.5C45 5.32843 44.3284 6 43.5 6H31.5C30.6716 6 30 5.32843 30 4.5V4.5C30 3.67157 29.3284 3 28.5 3H16H6C3.79086 3 2 4.79086 2 7V9C2 11.2091 3.79086 13 6 13V13C8.20914 13 10 14.7909 10 17V27C10 29.2091 11.7909 31 14 31H69C71.2091 31 73 29.2091 73 27V25C73 22.7909 71.2091 21 69 21V21ZM7 6C5.89543 6 5 6.89543 5 8V8C5 9.10457 5.89543 10 7 10V10C8.10457 10 9 9.10457 9 8V8C9 6.89543 8.10457 6 7 6V6ZM70 26C70 24.8954 69.1046 24 68 24V24C66.8954 24 66 24.8954 66 26V26C66 27.1046 66.8954 28 68 28V28C69.1046 28 70 27.1046 70 26V26ZM13.5 26V8H61.5V26H13.5Z" fill="#D9D9D9"/>
</svg>
