<svg width="75" height="34" viewBox="0 0 75 34" fill="none" xmlns="http://www.w3.org/2000/svg">
<path fill-rule="evenodd" clip-rule="evenodd" d="M12 7C12 4.79086 10.2091 3 8 3H6C3.79086 3 2 4.79086 2 7V9C2 11.2091 3.79086 13 6 13H8C10.2091 13 12 11.2091 12 9V7ZM7 10.2C5.78497 10.2 4.8 9.21503 4.8 8C4.8 6.78497 5.78497 5.8 7 5.8C8.21503 5.8 9.2 6.78497 9.2 8C9.2 9.21503 8.21503 10.2 7 10.2Z" fill="#D9D9D9"/>
<path fill-rule="evenodd" clip-rule="evenodd" d="M69 21C71.2091 21 73 22.7909 73 25V27C73 29.2091 71.2091 31 69 31H67C64.7909 31 63 29.2091 63 27V25C63 22.7909 64.7909 21 67 21H69ZM68 28.2C66.785 28.2 65.8 27.215 65.8 26C65.8 24.785 66.785 23.8 68 23.8C69.215 23.8 70.2 24.785 70.2 26C70.2 27.215 69.215 28.2 68 28.2Z" fill="#D9D9D9"/>
</svg>
