<svg width="75" height="34" viewBox="0 0 75 34" fill="none" xmlns="http://www.w3.org/2000/svg">
<path fill-rule="evenodd" clip-rule="evenodd" d="M69 21C66.7909 21 65 19.2091 65 17V7C65 4.79086 63.2091 3 61 3H50.8028C49.6765 3 48.6247 3.56288 48 4.5V4.5C47.3753 5.43712 46.3235 6 45.1972 6H29.8028C28.6765 6 27.6247 5.43712 27 4.5V4.5C26.3753 3.56288 25.3235 3 24.1972 3H16H6C3.79086 3 2 4.79086 2 7V9C2 11.2091 3.79086 13 6 13V13C8.20914 13 10 14.7909 10 17V27C10 29.2091 11.7909 31 14 31H69C71.2091 31 73 29.2091 73 27V25C73 22.7909 71.2091 21 69 21V21ZM7 5.8C5.78497 5.8 4.8 6.78497 4.8 8V8C4.8 9.21503 5.78497 10.2 7 10.2V10.2C8.21503 10.2 9.2 9.21503 9.2 8V8C9.2 6.78497 8.21503 5.8 7 5.8V5.8ZM70.2 26C70.2 24.785 69.215 23.8 68 23.8V23.8C66.785 23.8 65.8 24.785 65.8 26V26C65.8 27.215 66.785 28.2 68 28.2V28.2C69.215 28.2 70.2 27.215 70.2 26V26ZM13.5 26V8H61.5V26H13.5Z" fill="#D9D9D9"/>
</svg>
