<svg width="120" height="50" viewBox="0 0 120 50" fill="none" xmlns="http://www.w3.org/2000/svg">
<g clip-path="url(#clip0_2489_24)">
<rect width="120" height="50" fill="white"/>
<path d="M71 9L65 1H55L49 9M71 9H81L87 1H97L103 9M71 9L65 17M103 9H113L119 17L113 25L119 33L113 41H103M103 9L109 17H99M103 41L97 49H87L81 41H71M103 41L109 33H99M71 41L65 49H55L49 41M71 41L65 33M49 41H39M49 41L55 33M39 41L33 33M39 41L33 49H23L17 41M33 33L39 25M33 33H23M39 25L33 17M39 25H49M33 17L39 9M33 17H23M39 9H49M39 9L33 1H23L17 9M49 9L55 17M49 25L55 33M49 25L55 17M55 33H65M65 33H67M85 17H81M95 17H99M81 17V33M81 17H75M81 33H75M81 33H83M75 17H73M75 17V25M75 33H73M75 33V25M75 25H67M67 25V17M67 25V33M65 17H55M65 17H67M69 17H67M67 33H69M99 17V25M99 33V25M99 33H97M99 25H103M23 17L17 9M23 17L17 25M17 9H7L1 17L7 25M7 25L1 33L7 41H17M7 25H17M17 41L23 33M23 33L17 25" stroke="black" stroke-width="1.2" stroke-linecap="square"/>
</g>
<defs>
<clipPath id="clip0_2489_24">
<rect width="120" height="50" fill="white"/>
</clipPath>
</defs>
</svg>
