<svg width="55" height="73" viewBox="0 0 55 73" fill="none" xmlns="http://www.w3.org/2000/svg">
<path d="M51 25L39 34M51 25L47 22L43 25M51 25V48L39 57M39 34V57M39 34L35 31M27 25L23 28M27 25L31 28M27 25L19 19M27 25L31 22M39 16L43 19M39 16L31 10H23L19 13V19M39 16L35 19M43 19V25M43 19L39 22M35 25L39 22M39 28L43 25M39 57L35 54M27 66L35 60V54M27 66V43M27 66L3 48V25M27 43L35 37M27 43L31 40M27 43L19 37M35 37V31M35 37V54M3 25L15 34M3 25L7 22H11V19L15 16L19 19M15 34L19 31M15 34L19 37M23 28L19 31M23 28L15 22V25M23 28H31M19 31L15 28M15 25H11L15 28M15 25V28M43 25L39 22M23 34L27 37L31 34L27 31L23 34ZM23 34L19 37M31 28L35 31M31 22L27 19M31 22L35 19M31 16L27 13L23 16L27 19M31 16L27 19M31 16L35 19" stroke="#666666"/>
</svg>
