<svg width="256" height="256" viewBox="0 0 256 256" fill="none" xmlns="http://www.w3.org/2000/svg">
<g clip-path="url(#clip0_4396_18)">
<path fill-rule="evenodd" clip-rule="evenodd" d="M180 37.9333L192 17.1487V110.851L194.973 116L218.067 76L238.851 64L201.901 128L209.426 141.033L232 128H256L215.426 151.426L238.851 192H192V238.851L151.426 215.426L128 256L104.574 215.426L64 238.851V192H17.1488L40.5744 151.426L0 128H24L46.5744 141.033L54.0992 128L17.1488 64L37.9334 76L61.0274 116L64 110.851V17.1487L76 37.9333V90.0666L128 0L180 90.0666V37.9333ZM64 151.094L56.9667 147.033L61.0274 140L64 145.149V151.094ZM64 164.95L50.9667 157.426L37.9334 180H64V164.95ZM81.1488 174.851L76 171.879V180H84.1214L81.1488 174.851ZM76 218.067L98.5744 205.033L91.0496 192H76V218.067ZM108.967 199.033L104.906 192H110.851L116 194.973L108.967 199.033ZM128 232L114.967 209.426L128 201.901L141.033 209.426L128 232ZM147.033 199.033L140 194.973L145.149 192H151.094L147.033 199.033ZM157.426 205.033L180 218.067V192H164.95L157.426 205.033ZM171.879 180L174.851 174.851L180 171.879V180H171.879ZM192 164.95V180H218.067L205.033 157.426L192 164.95ZM199.033 147.033L192 151.094V145.149L194.973 140L199.033 147.033ZM76 114.067V141.933L89.9334 166.067L114.067 180H141.933L166.067 166.067L180 141.933V114.067L133.196 33L128 24L122.804 33L76 114.067Z" fill="white"/>
</g>
<defs>
<clipPath id="clip0_4396_18">
<rect width="256" height="256" fill="white"/>
</clipPath>
</defs>
</svg>
