<svg width="120" height="50" viewBox="0 0 120 50" fill="none" xmlns="http://www.w3.org/2000/svg">
<g clip-path="url(#clip0_2473_12)">
<rect width="120" height="50" fill="white"/>
<path d="M71 9L65 1H55L49 9M71 9H81L87 1H97L103 9H109M71 9L65 17M71 41L65 49H55L49 41M71 41L65 33M71 41H81L87 49H97L103 41H109M49 41H39M49 41L55 33M39 41L33 33M39 41L33 49H23L17 41M33 33L39 25M33 33H23M39 25L33 17M39 25H49M33 17L39 9M33 17H23M39 9H49M39 9L33 1H23L17 9M49 9L55 17M49 25L55 33M49 25L55 17M55 33H65M65 33H69M87 17H83M97 17H101M83 17V33M83 17H77M83 33H77M83 33H85M77 17H75M77 17V25M77 33H75M77 33V25M77 25H69M69 25V17M69 25V33M65 17H55M65 17H69M71 17H69M69 33H71M101 17V25M101 17H109V9M101 33V25M101 33H109V41M101 33H99M101 25H105M109 9H113L119 17L113 25L119 33L113 41H109M23 17L17 9M23 17L17 25M17 9H7L1 17L7 25M7 25L1 33L7 41H17M7 25H17M17 41L23 33M23 33L17 25" stroke="black" stroke-width="1.2" stroke-linecap="square"/>
</g>
<defs>
<clipPath id="clip0_2473_12">
<rect width="120" height="50" fill="white"/>
</clipPath>
</defs>
</svg>
