<svg width="120" height="50" viewBox="0 0 120 50" fill="none" xmlns="http://www.w3.org/2000/svg">
<g clip-path="url(#clip0_2480_20)">
<rect width="120" height="50" fill="white"/>
<path d="M49 9L55 17M49 9H45M49 9L55 1H65L71 9M49 41L55 33M49 41H45M49 41L55 49H65L71 41M103 41H113L119 33L113 25M103 41L97 33M103 41L97 49H87L81 41M97 33L103 25M97 33H87M103 25L97 17M103 25H113M97 17L103 9M97 17H87M103 9H113L119 17L113 25M103 9L97 1H87L81 9M23 17H19M33 17H37M55 33L49 25L55 17M55 33H65M55 17H65M19 17V33M19 17H13M19 33H13M19 33H21M13 17H11M13 17V25M13 33H11M13 33V25M13 25H5M5 25V17M5 25V33M7 17H5M5 33H7M5 33H1L7 41H17L23 49H33L39 41H45M37 17V25M37 17H45V9M37 33V25M37 33H45V41M37 33H35M37 25H41M5 17H1L7 9H17L23 1H33L39 9H45M87 17L81 9M87 17L81 25M81 9H71M71 9L65 17M65 17L71 25M71 25L65 33M71 25H81M65 33L71 41M71 41H81M81 41L87 33M87 33L81 25" stroke="black" stroke-width="1.2" stroke-linecap="square"/>
</g>
<defs>
<clipPath id="clip0_2480_20">
<rect width="120" height="50" fill="white"/>
</clipPath>
</defs>
</svg>
