<svg width="61" height="26" viewBox="0 0 61 26" fill="none" xmlns="http://www.w3.org/2000/svg">
<g clip-path="url(#clip0_2461_2)">
<rect width="61" height="26" fill="white"/>
<path d="M20 5L17 1H12L9 5H7M20 5H25M20 5V7H17M25 5L28 1H33L36 5M25 5L28 9M36 5H41M36 5L33 9M41 5L44 1H49L52 5M41 5L44 9M52 5H57L60 9L57 13M52 5L49 9M57 13L60 17L57 21H52M57 13H52M52 21L49 25H44L41 21M52 21L49 17M41 21L44 17M41 21H37M20 21L17 25H12L9 21M20 21L17 17M20 21H23M9 21H4L1 17L4 13M9 21L12 17M4 13L1 9L4 5H7M4 13H8M12 17L9 13H8M12 17H17M17 17L20 13M20 13V11H17M20 13H23M28 9L25 13H23M28 9H33M33 9L36 13H37M41 13L44 17M41 13L44 9M41 13H37M44 17H49M49 17L52 13M52 13L49 9M49 9H44M9 7H7V5M9 7H12M9 7V11M12 7H13M12 7V9M12 11H11M12 11H13M12 11V9M12 9H15M15 9V7M15 9V11M15 7H14M15 7H17M17 7V9M15 11H14M15 11H17M17 11V9M9 11H8V13M9 11H10M17 9H19M24 15H23V13M24 15H25M24 15V17M24 19H23V21M24 19H25M24 19V17M24 17H27M27 17V15M27 17V19M27 15H26M27 15H29M29 15V19M29 15H30M27 19H26M27 19H29M29 19H30M33 15H34M34 15H37V13M34 15V17M34 17H36M34 17V19M34 19H33M34 19H37V21M37 21H36L33 25H28L25 21H23" stroke="black" stroke-width="0.8" stroke-linecap="square"/>
</g>
<defs>
<clipPath id="clip0_2461_2">
<rect width="61" height="26" fill="white"/>
</clipPath>
</defs>
</svg>
