<svg width="120" height="50" viewBox="0 0 120 50" fill="none" xmlns="http://www.w3.org/2000/svg">
<g clip-path="url(#clip0_2461_2)">
<rect width="120" height="50" fill="white"/>
<path d="M39 9L33 1H23L17 9H13M39 9H49M39 9V13H33M49 9L55 1H65L71 9M49 9L55 17M71 9H81M71 9L65 17M81 9L87 1H97L103 9M81 9L87 17M103 9H113L119 17L113 25M103 9L97 17M113 25L119 33L113 41H103M113 25H103M103 41L97 49H87L81 41M103 41L97 33M81 41L87 33M81 41H74M39 41L33 49H23L17 41M39 41L33 33M39 41H46M17 41H7L1 33L7 25M17 41L23 33M7 25L1 17L7 9H13M7 25H15M23 33L17 25H15M23 33H33M33 33L39 25M39 25H46M39 25H41V21H33M55 17L49 25H46M55 17H65M65 17L71 25H74M81 25L87 33M81 25L87 17M81 25H74M87 33H97M97 33L103 25M103 25L97 17M97 17H87M17 13H13V9M17 13H23M17 13V21M23 13H25M23 13V17M23 21H21M23 21H25M23 21V17M23 17H29M29 17V13M29 17V21M29 13H27M29 13H33M33 13V17M29 21H27M29 21H33M33 21V17M17 21H15V25M17 21H19M33 17H37M48 29H46V25M48 29H50M48 29V33M48 37H46V41M48 37H50M48 37V33M48 33H54M54 33V29M54 33V37M54 29H52M54 29H58M58 29V37M58 29H60M54 37H52M54 37H58M58 37H60M66 29H68M68 29H74V25M68 29V33M68 33H72M68 33V37M68 37H66M68 37H74V41M74 41H71L65 49H55L49 41H46" stroke="black" stroke-width="1.2" stroke-linecap="square"/>
</g>
<defs>
<clipPath id="clip0_2461_2">
<rect width="120" height="50" fill="white"/>
</clipPath>
</defs>
</svg>
